# xmcd
#
# Track frame offsets:
#       150
#       9790
#       25310
#       36782
#       49567
#       59190
#       73610
#       85912
#       99182
#       107712
#       122895
#       133450
#       150382
#       162397
#       174360
#       186047
#       196970
#       207282
#       217337
#       228872
#       242602
#       253717
#       264585
#       276842
#       290992
#       300415
#       312385
#       321052
#       335610
#       346795
#
# Disc length: 4754 seconds
#
# Revision: 0
# Processed by: cddbd v1.4PL0 Copyright (c) Steve Scherf et al.
# Submitted via: WhereIsIt 3.26
#
DISCID=b912901e
DTITLE=Rex and Noelene Franklin - a real new zealand cowboy song
DYEAR=1900
DGENRE=
TTITLE0=the shearer 's jamboree
TTITLE1=may I sleep in your barn tonight mister
TTITLE2=the ghost of tom dooley
TTITLE3=you're the nearest thing to heaven
TTITLE4=serenading in the evening
TTITLE5=I love you because
TTITLE6=swiss lullaby
TTITLE7=he'll have to go
TTITLE8=let's be sweethearts again
TTITLE9=when the moon across the bushland beams
TTITLE10=rocky mountain lullaby
TTITLE11=little boy lost
TTITLE12=way up on the mountains
TTITLE13=chasin a rainbow
TTITLE14=1000 miles ago
TTITLE15=singing in the darkness
TTITLE16=I'll never be fooled again
TTITLE17=I'll sing you a lullaby tune
TTITLE18=blues in the springtime
TTITLE19=a real new zealand cowboy song
TTITLE20=one small photograph
TTITLE21=when you have no one to love you
TTITLE22=bushman's rodeo
TTITLE23=the prisoner's song
TTITLE24=beautiful girl of the prairie
TTITLE25=ballad of a teenage queen
TTITLE26=would you mind
TTITLE27=I wonder where you are tonight
TTITLE28=oh why can't you say
TTITLE29=rocky mountain lullaby
EXTD=
EXTT0=
EXTT1=
EXTT2=
EXTT3=
EXTT4=
EXTT5=
EXTT6=
EXTT7=
EXTT8=
EXTT9=
EXTT10=
EXTT11=
EXTT12=
EXTT13=
EXTT14=
EXTT15=
EXTT16=
EXTT17=
EXTT18=
EXTT19=
EXTT20=
EXTT21=
EXTT22=
EXTT23=
EXTT24=
EXTT25=
EXTT26=
EXTT27=
EXTT28=
EXTT29=
PLAYORDER=
